<svg width="23" height="23" viewBox="0 0 23 23" fill="none" xmlns="http://www.w3.org/2000/svg">
<g clip-path="url(#clip0_92909_879)">
<path d="M8 15.8887L11.6 19.4442L15.2 15.8887" stroke="white" stroke-width="1.24444" stroke-linecap="round" stroke-linejoin="round"/>
<path d="M11.6001 11.4443V19.4443" stroke="white" stroke-width="1.24444" stroke-linecap="round" stroke-linejoin="round"/>
<path d="M19.5925 16.8578C20.3749 16.3143 20.9617 15.5388 21.2676 14.6437C21.5735 13.7486 21.5827 12.7805 21.2938 11.8798C21.0049 10.9792 20.4329 10.193 19.6609 9.63516C18.8889 9.07736 17.957 8.77703 17.0005 8.77777H15.8665C15.5958 7.73588 15.0893 6.76821 14.3852 5.94762C13.681 5.12703 12.7976 4.47489 11.8013 4.04031C10.8051 3.60573 9.72201 3.40002 8.63363 3.43868C7.54524 3.47733 6.47991 3.75935 5.51785 4.26348C4.55579 4.76762 3.72205 5.48075 3.07942 6.34918C2.43679 7.2176 2.002 8.2187 1.80779 9.27711C1.61358 10.3355 1.665 11.4236 1.95819 12.4596C2.25139 13.4955 2.77871 14.4522 3.50045 15.2578" stroke="white" stroke-width="1.24444" stroke-linecap="round" stroke-linejoin="round"/>
</g>
<defs>
<clipPath id="clip0_92909_879">
<rect width="21.6" height="21.3333" fill="white" transform="translate(0.799805 0.777832)"/>
</clipPath>
</defs>
</svg>
