<svg width="20" height="20" viewBox="0 0 20 20" fill="none" xmlns="http://www.w3.org/2000/svg">
<path d="M14.2001 19.357V15.917C14.2339 15.4931 14.1759 15.067 14.03 14.667C13.8841 14.267 13.6537 13.9023 13.3541 13.597C16.1801 13.2859 19.1501 12.2281 19.1501 7.37477C19.1499 6.13372 18.6665 4.94027 17.8001 4.04143C18.2104 2.95566 18.1814 1.75552 17.7191 0.69032C17.7191 0.69032 16.6571 0.379209 14.2001 2.00588C12.1373 1.45372 9.96289 1.45372 7.9001 2.00588C5.4431 0.379209 4.3811 0.69032 4.3811 0.69032C3.91884 1.75552 3.88983 2.95566 4.3001 4.04143C3.42721 4.94694 2.94337 6.15118 2.9501 7.40143C2.9501 12.2192 5.9201 13.277 8.7461 13.6237C8.45 13.9259 8.22163 14.2862 8.07588 14.6814C7.93012 15.0765 7.87022 15.4975 7.9001 15.917V19.357M7.9001 16.6903C3.4001 18.0237 3.4001 14.4681 1.6001 14.0237L7.9001 16.6903Z" stroke="white" stroke-width="1.24444" stroke-linecap="round" stroke-linejoin="round"/>
</svg>
