<svg width="20" height="20" viewBox="0 0 20 20" fill="none" xmlns="http://www.w3.org/2000/svg">
<path d="M8.00049 10.8002C8.34405 11.2595 8.78237 11.6395 9.28573 11.9145C9.78908 12.1895 10.3457 12.3531 10.9178 12.394C11.4899 12.435 12.0642 12.3525 12.6016 12.152C13.139 11.9515 13.627 11.6378 14.0325 11.2322L16.4325 8.83217C17.1611 8.07776 17.5643 7.06735 17.5552 6.01856C17.5461 4.96978 17.1254 3.96653 16.3838 3.22489C15.6421 2.48326 14.6389 2.06258 13.5901 2.05347C12.5413 2.04436 11.5309 2.44753 10.7765 3.17617L9.40049 4.54417" stroke="white" stroke-width="1.12" stroke-linecap="round" stroke-linejoin="round"/>
<path d="M11.2004 9.20037C10.8568 8.74107 10.4185 8.36103 9.91511 8.08602C9.41176 7.81102 8.85515 7.64748 8.28303 7.60651C7.71092 7.56553 7.13669 7.64808 6.59928 7.84855C6.06187 8.04902 5.57386 8.36272 5.16836 8.76837L2.76836 11.1684C2.03972 11.9228 1.63655 12.9332 1.64566 13.982C1.65477 15.0308 2.07545 16.034 2.81708 16.7756C3.55871 17.5173 4.56196 17.938 5.61075 17.9471C6.65954 17.9562 7.66995 17.553 8.42435 16.8244L9.79235 15.4564" stroke="white" stroke-width="1.12" stroke-linecap="round" stroke-linejoin="round"/>
</svg>
