<svg width="312" height="130" viewBox="0 0 312 130" fill="none" xmlns="http://www.w3.org/2000/svg">
<rect width="312" height="130" rx="2.60377" fill="#121212"/>
<path d="M0 2.35472C0 1.05424 1.05424 0 2.35472 0V130C1.05424 130 0 128.946 0 127.645V2.35472Z" fill="#00D2DF"/>
<path d="M124.722 74V56.5455H135.903V59.196H127.884V63.9347H135.136V66.5852H127.884V74H124.722ZM154.381 65.2727C154.381 67.1534 154.028 68.7642 153.324 70.1051C152.625 71.4403 151.67 72.4631 150.46 73.1733C149.256 73.8835 147.889 74.2386 146.361 74.2386C144.832 74.2386 143.463 73.8835 142.253 73.1733C141.048 72.4574 140.094 71.4318 139.389 70.0966C138.69 68.7557 138.341 67.1477 138.341 65.2727C138.341 63.392 138.69 61.7841 139.389 60.4489C140.094 59.108 141.048 58.0824 142.253 57.3722C143.463 56.6619 144.832 56.3068 146.361 56.3068C147.889 56.3068 149.256 56.6619 150.46 57.3722C151.67 58.0824 152.625 59.108 153.324 60.4489C154.028 61.7841 154.381 63.392 154.381 65.2727ZM151.202 65.2727C151.202 63.9489 150.994 62.8324 150.58 61.9233C150.17 61.0085 149.602 60.3182 148.875 59.8523C148.148 59.3807 147.31 59.1449 146.361 59.1449C145.412 59.1449 144.574 59.3807 143.847 59.8523C143.119 60.3182 142.548 61.0085 142.134 61.9233C141.724 62.8324 141.52 63.9489 141.52 65.2727C141.52 66.5966 141.724 67.7159 142.134 68.6307C142.548 69.5398 143.119 70.2301 143.847 70.7017C144.574 71.1676 145.412 71.4006 146.361 71.4006C147.31 71.4006 148.148 71.1676 148.875 70.7017C149.602 70.2301 150.17 69.5398 150.58 68.6307C150.994 67.7159 151.202 66.5966 151.202 65.2727ZM155.83 59.196V56.5455H169.756V59.196H164.361V74H161.224V59.196H155.83ZM187.263 65.2727C187.263 67.1534 186.911 68.7642 186.207 70.1051C185.508 71.4403 184.553 72.4631 183.343 73.1733C182.138 73.8835 180.772 74.2386 179.244 74.2386C177.715 74.2386 176.346 73.8835 175.136 73.1733C173.931 72.4574 172.977 71.4318 172.272 70.0966C171.573 68.7557 171.224 67.1477 171.224 65.2727C171.224 63.392 171.573 61.7841 172.272 60.4489C172.977 59.108 173.931 58.0824 175.136 57.3722C176.346 56.6619 177.715 56.3068 179.244 56.3068C180.772 56.3068 182.138 56.6619 183.343 57.3722C184.553 58.0824 185.508 59.108 186.207 60.4489C186.911 61.7841 187.263 63.392 187.263 65.2727ZM184.085 65.2727C184.085 63.9489 183.877 62.8324 183.462 61.9233C183.053 61.0085 182.485 60.3182 181.758 59.8523C181.031 59.3807 180.192 59.1449 179.244 59.1449C178.295 59.1449 177.457 59.3807 176.729 59.8523C176.002 60.3182 175.431 61.0085 175.016 61.9233C174.607 62.8324 174.403 63.9489 174.403 65.2727C174.403 66.5966 174.607 67.7159 175.016 68.6307C175.431 69.5398 176.002 70.2301 176.729 70.7017C177.457 71.1676 178.295 71.4006 179.244 71.4006C180.192 71.4006 181.031 71.1676 181.758 70.7017C182.485 70.2301 183.053 69.5398 183.462 68.6307C183.877 67.7159 184.085 66.5966 184.085 65.2727Z" fill="#00D2DF"/>
</svg>
